<?xml version="1.0" standalone="no"?>
<!DOCTYPE svg PUBLIC "-//W3C//DTD SVG 20010904//EN"
 "http://www.w3.org/TR/2001/REC-SVG-20010904/DTD/svg10.dtd">
<svg version="1.0" xmlns="http://www.w3.org/2000/svg"
 width="70.000000pt" height="70.000000pt" viewBox="0 0 70.000000 70.000000"
 preserveAspectRatio="xMidYMid meet">
<metadata>
Created by potrace 1.11, written by Peter Selinger 2001-2013
</metadata>
<g transform="translate(0.000000,70.000000) scale(0.100000,-0.100000)"
fill="#000000" stroke="none">
<path d="M0 546 l0 -155 48 -4 47 -3 -47 -2 c-46 -2 -48 -3 -48 -32 l0 -29
153 -4 152 -3 -152 -2 -153 -2 0 -155 0 -155 154 0 155 0 4 52 3 53 2 -52 c2
-52 3 -53 32 -53 l30 0 0 160 0 160 160 0 160 0 0 30 c0 28 -1 29 -57 33 l-58
3 58 2 57 2 0 155 0 155 -155 0 -154 0 -4 -152 -3 -153 -2 153 -2 152 -29 0
c-28 0 -30 -2 -34 -47 l-3 -48 -2 48 -2 47 -155 0 -155 0 0 -154z m320 -61 l0
-105 -112 2 -113 2 108 3 107 4 0 99 c0 55 2 100 5 100 3 0 5 -47 5 -105z
m218 -102 c-27 -2 -69 -2 -95 0 -27 2 -5 3 47 3 52 0 74 -1 48 -3z m-221 -225
c-2 -29 -3 -8 -3 47 0 55 1 79 3 53 2 -26 2 -71 0 -100z"/>
<path d="M390 155 l0 -155 155 0 155 0 0 155 0 155 -155 0 -155 0 0 -155z"/>
</g>
</svg>
